<?xml version="1.0" encoding="UTF-8" standalone="no" ?>
<!DOCTYPE svg PUBLIC "-//W3C//DTD SVG 1.1//EN" "http://www.w3.org/Graphics/SVG/1.1/DTD/svg11.dtd">
<svg xmlns="http://www.w3.org/2000/svg" xmlns:xlink="http://www.w3.org/1999/xlink" version="1.1" width="512" height="512" viewBox="0 0 512 512" xml:space="preserve">
<desc>Created with Fabric.js 5.2.4</desc>
<defs>
</defs>
<g transform="matrix(1 0 0 1 256 256)" id="9d27b9f6-46c5-4c6f-9c67-b60c39236084"  >
<rect style="stroke: none; stroke-width: 1; stroke-dasharray: none; stroke-linecap: butt; stroke-dashoffset: 0; stroke-linejoin: miter; stroke-miterlimit: 4; fill: rgb(255,255,255); fill-rule: nonzero; opacity: 1; visibility: hidden;" vector-effect="non-scaling-stroke"  x="-256" y="-256" rx="0" ry="0" width="512" height="512" />
</g>
<g transform="matrix(Infinity NaN NaN Infinity 0 0)" id="d19a38e9-5c45-431e-825d-9e00ca88c2c4"  >
</g>
<g transform="matrix(0.96 0 0 0.96 255.43 256.43)" id="4010d995-8b75-4923-8419-8cfc1256e2bd"  >
<path style="stroke: rgb(0,0,0); stroke-width: 0; stroke-dasharray: none; stroke-linecap: butt; stroke-dashoffset: 0; stroke-linejoin: miter; stroke-miterlimit: 4; fill: rgb(255,255,255); fill-rule: nonzero; opacity: 1;" vector-effect="non-scaling-stroke"  transform=" translate(-256, -256)" d="M 57.7 193 L 67.10000000000001 209.4 C 75.4 223.9 89 234.6 105.10000000000001 239.20000000000002 L 163 255.7 C 180.2 260.59999999999997 192 276.3 192 294.2 L 192 334.09999999999997 C 192 345.09999999999997 198.2 355.09999999999997 208 359.99999999999994 C 217.8 364.8999999999999 224 374.8999999999999 224 385.8999999999999 L 224 424.8999999999999 C 224 440.49999999999994 238.9 451.7999999999999 253.9 447.49999999999994 C 270 442.8999999999999 282.5 429.99999999999994 286.6 413.69999999999993 L 289.40000000000003 402.49999999999994 C 293.6 385.59999999999997 304.6 371.09999999999997 319.70000000000005 362.49999999999994 L 327.80000000000007 357.8999999999999 C 342.80000000000007 349.3999999999999 352.00000000000006 333.3999999999999 352.00000000000006 316.19999999999993 L 352.00000000000006 307.8999999999999 C 352.00000000000006 295.19999999999993 346.90000000000003 282.99999999999994 337.90000000000003 273.99999999999994 L 334.00000000000006 270.09999999999997 C 325.00000000000006 261.09999999999997 312.80000000000007 255.99999999999997 300.1000000000001 255.99999999999997 L 257 255.99999999999997 C 245.9 255.99999999999997 234.9 253.09999999999997 225.2 247.59999999999997 L 190.7 227.89999999999998 C 186.39999999999998 225.39999999999998 183.1 221.39999999999998 181.5 216.7 C 178.3 207.1 182.6 196.7 191.7 192.2 L 197.6 189.2 C 204.2 185.89999999999998 211.9 185.29999999999998 218.9 187.7 L 242.1 195.39999999999998 C 250.29999999999998 198.09999999999997 259.3 194.99999999999997 264 187.89999999999998 C 268.7 180.89999999999998 268.2 171.59999999999997 262.8 165.09999999999997 L 249.20000000000002 148.79999999999995 C 239.20000000000002 136.79999999999995 239.3 119.29999999999995 249.50000000000003 107.49999999999996 L 265.20000000000005 89.19999999999996 C 274.00000000000006 78.89999999999996 275.40000000000003 64.19999999999996 268.70000000000005 52.49999999999996 L 266.30000000000007 48.299999999999955 C 262.80000000000007 48.09999999999995 259.4000000000001 47.99999999999996 255.90000000000006 47.99999999999996 C 163.1 48 84.4 108.9 57.7 193 z M 464 256 C 464 219.2 454.4 184.6 437.6 154.5 L 412 164.8 C 396.3 171.10000000000002 388.2 188.60000000000002 393.5 204.60000000000002 L 410.4 255.3 C 413.9 265.7 422.4 273.6 433 276.2 L 462.1 283.5 C 463.3 274.5 463.90000000000003 265.3 463.90000000000003 256 z M 512 256 C 512 397.4 397.4 512 256 512 C 114.60000000000002 512 0 397.4 0 256 C 0 114.60000000000002 114.6 0 256 0 C 397.4 0 512 114.6 512 256 z" stroke-linecap="round" />
</g>
</svg>